<svg xmlns="http://www.w3.org/2000/svg" width="589" height="451" viewBox="0 0 589 451">
    <g fill="none" fill-rule="evenodd">
        <g>
            <g transform="translate(-131 -199) translate(131 199)">
                <path fill="#FFB8B8" fill-rule="nonzero" d="M210.307 129.041c-1.754.194-3.332 1.158-4.31 2.631-.977 1.474-1.254 3.306-.756 5.004L188 149.033 198.277 153l14.797-12.343c2.851-1.052 4.467-4.077 3.761-7.04-.706-2.964-3.51-4.93-6.528-4.576z"/>
                <path fill="#2F2E41" fill-rule="nonzero" d="M208.359 147.397l-21.601 21.906c-2.96 2.982-6.864 4.826-11.033 5.209l-26.692 2.454c-1.977.19-3.946-.433-5.46-1.729-2.115-1.784-3.03-4.631-2.354-7.327.676-2.695 2.823-4.762 5.525-5.32l27.269-5.852 24.826-18.444c.702-.398 1.561-.392 2.257.017l6.752 5.574c.833.46 1.283 1.404 1.119 2.346-.08.443-.291.85-.608 1.166z"/>
                <path fill="#F2F2F2" fill-rule="nonzero" d="M465.958 159.602c.327-3.034-1.27-5.949-3.997-7.292l-133.52-65.574c-1.716-.843-3.694-.967-5.5-.345-1.805.623-3.29 1.94-4.13 3.663l-.002.005-50.08 102.956c-1.74 3.591-.26 7.92 3.308 9.678l133.521 65.574c3.574 1.749 7.881.262 9.632-3.323l50.079-102.957c.366-.749.599-1.556.689-2.385z"/>
                <path fill="#FFF" fill-rule="nonzero" d="M387.76 387H214.24c-4.549-.005-8.235-3.69-8.24-8.238V143.238c.005-4.547 3.691-8.233 8.24-8.238h173.52c4.549.005 8.235 3.69 8.24 8.238v235.524c-.005 4.547-3.691 8.233-8.24 8.238z"/>
                <circle cx="260.5" cy="193.5" r="11.5" fill="#E6E6E6" fill-rule="nonzero"/>
                <path fill="#E6E6E6" fill-rule="nonzero" d="M243 224.811c1.605.895 3.285 1.655 5.02 2.27l.308.105c3.497 1.205 7.177 1.818 10.884 1.814.745 0 1.464-.026 2.135-.075 1.633-.099 3.256-.318 4.856-.657.878-.189 1.753-.414 2.6-.669.204-.059.394-.117.601-.181 3.45-1.098 6.692-2.746 9.596-4.88-.233-.432-.488-.853-.765-1.26-3.033-4.548-8.2-7.285-13.739-7.278h-5.978c-6.44.001-12.286 3.69-14.96 9.438-.21.448-.396.906-.558 1.373z"/>
                <path fill="#2F2E41" fill-rule="nonzero" d="M264.117 228.436c-.4.042-.786.237-1.117.564 1.682-.15 3.353-.485 5-1l-3.883.436z"/>
                <path fill="#CCC" fill-rule="nonzero" d="M261 163c-14.943.002-28.02 10.044-31.878 24.48-3.858 14.436 2.465 29.663 15.415 37.12 1.672.967 3.427 1.784 5.244 2.44l.309.107c3.506 1.23 7.195 1.857 10.91 1.853.719 0 1.437-.024 2.144-.077 1.636-.1 3.262-.325 4.864-.671.897-.196 1.776-.428 2.607-.683.202-.06.392-.12.6-.184 15.43-5.027 24.917-20.525 22.374-36.553C291.046 174.804 277.23 163.003 261 163zm19.147 57.721c-2.847 2.197-6.051 3.887-9.472 4.995-.185.06-.375.118-.565.178-.79.243-1.621.457-2.476.641-1.516.331-3.055.545-4.603.642-.671.047-1.354.07-2.031.07-3.517.003-7.009-.59-10.328-1.751l-.29-.101c-1.808-.65-3.55-1.469-5.204-2.447-11.819-6.958-17.714-20.815-14.53-34.156 3.183-13.34 14.7-23.042 28.387-23.914 13.688-.872 26.342 7.29 31.192 20.12 4.85 12.83.761 27.321-10.08 35.723z"/>
                <path fill="#CCC" fill-rule="nonzero" d="M387.76 387H214.24c-4.549-.005-8.235-3.69-8.24-8.238V143.238c.005-4.547 3.691-8.233 8.24-8.238h173.52c4.549.005 8.235 3.69 8.24 8.238v235.524c-.005 4.547-3.691 8.233-8.24 8.238zM214.24 135.97c-4.014.004-7.266 3.256-7.27 7.268v235.524c.004 4.012 3.256 7.264 7.27 7.269h173.52c4.014-.005 7.266-3.257 7.27-7.27V143.239c-.004-4.012-3.256-7.264-7.27-7.269H214.24z"/>
                <path fill="#E6E6E6" fill-rule="nonzero" d="M354.107 196h-49.214c-2.15 0-3.893-1.79-3.893-4s1.743-4 3.893-4h49.214c2.15 0 3.893 1.79 3.893 4s-1.743 4-3.893 4zM370.11 209h-65.22c-2.148 0-3.89-1.79-3.89-4s1.742-4 3.89-4h65.22c2.148 0 3.89 1.79 3.89 4s-1.742 4-3.89 4zM354.117 260H231.883c-2.145 0-3.883-1.79-3.883-4s1.738-4 3.883-4h122.234c2.145 0 3.883 1.79 3.883 4s-1.738 4-3.883 4zM370.118 273H231.882c-2.144 0-3.882-1.79-3.882-4s1.738-4 3.882-4h138.236c2.144 0 3.882 1.79 3.882 4s-1.738 4-3.882 4zM354.117 303H231.883c-2.145 0-3.883-1.79-3.883-4s1.738-4 3.883-4h122.234c2.145 0 3.883 1.79 3.883 4s-1.738 4-3.883 4zM370.118 316H231.882c-2.144 0-3.882-1.79-3.882-4s1.738-4 3.882-4h138.236c2.144 0 3.882 1.79 3.882 4s-1.738 4-3.882 4zM354.117 346H231.883c-2.145 0-3.883-1.79-3.883-4s1.738-4 3.883-4h122.234c2.145 0 3.883 1.79 3.883 4s-1.738 4-3.883 4zM370.122 359h-138.24c-2.144 0-3.882-1.79-3.882-4s1.738-4 3.882-4h138.24c2.143.003 3.878 1.793 3.878 4s-1.735 3.997-3.878 4z"/>
                <path fill="#FFF" fill-rule="nonzero" d="M459.958 226.602c.327-3.034-1.27-5.949-3.997-7.292l-133.52-65.574c-1.716-.843-3.694-.967-5.5-.345-1.805.623-3.29 1.94-4.13 3.663l-.002.005-50.08 102.956c-1.74 3.591-.26 7.92 3.308 9.678l133.521 65.574c3.574 1.749 7.881.262 9.632-3.323l50.079-102.957c.366-.749.599-1.556.689-2.385z"/>
                <path fill="#3F3D56" fill-rule="nonzero" d="M459.958 226.602c.327-3.034-1.27-5.949-3.997-7.292l-133.52-65.574c-1.716-.843-3.694-.967-5.5-.345-1.805.623-3.29 1.94-4.13 3.663l-.002.005-50.08 102.956c-1.74 3.591-.26 7.92 3.308 9.678l133.521 65.574c3.574 1.749 7.881.262 9.632-3.323l50.079-102.957c.366-.749.599-1.556.689-2.385zm-51.53 104.968c-1.543 3.164-5.345 4.476-8.498 2.932L266.41 268.928c-3.15-1.55-4.455-5.37-2.918-8.539l50.079-102.956c1.544-3.164 5.345-4.476 8.498-2.932l133.521 65.573c3.15 1.552 4.455 5.371 2.919 8.54l-50.08 102.956z"/>
                <path fill="#E6E6E6" fill-rule="nonzero" d="M445.795 231.285l-35.092 71.59c-.488.994-1.692 1.407-2.69.921l-121.884-59.398c-.088-.041-.171-.09-.25-.146-.826-.56-1.114-1.642-.675-2.537l35.092-71.59c.235-.478.65-.843 1.154-1.016.504-.173 1.057-.139 1.536.094l121.885 59.398c.998.486 1.412 1.687.925 2.682l-.001.002z"/>
                <circle cx="338.5" cy="210.5" r="17.5" fill="#6C63FF" fill-rule="nonzero"/>
                <path fill="#3F3D56" fill-rule="nonzero" d="M364 283l-77.72-37.825c-.099-.046-.192-.101-.28-.164l67.878-45.51c.851-.582 1.95-.663 2.878-.211.928.451 1.54 1.365 1.602 2.39l3.786 54.553.182 2.611L364 283z"/>
                <path fill="#000" fill-rule="nonzero" d="M365 283L338 269.973 360.664 257.363 362.296 256.455 363.111 256 363.297 258.633z" opacity=".2"/>
                <path fill="#3F3D56" fill-rule="nonzero" d="M408 304l-67-32.816 22.2-12.54 1.599-.903 28.93-16.342c1.897-1.071 4.614.135 5.23 2.184.04.14.073.28.095.424L408 304z"/>
                <path fill="#FFB8B8" fill-rule="nonzero" d="M200.002 310L207.454 309.999 211 282 200 282.001z"/>
                <path fill="#2F2E41" fill-rule="nonzero" d="M198 308h14.658c2.478 0 4.854.918 6.606 2.553 1.752 1.634 2.736 3.851 2.736 6.163v.283L198 317v-9z"/>
                <path fill="#FFB8B8" fill-rule="nonzero" d="M143 306.504L150.622 308 160 279.208 148.751 277z"/>
                <path fill="#2F2E41" fill-rule="nonzero" d="M141.946 303l15.12 3c2.556.506 4.809 2.022 6.262 4.213 1.454 2.191 1.99 4.878 1.49 7.47l-.062.317L140 313.09l1.946-10.09z"/>
                <path fill="#FFB8B8" fill-rule="nonzero" d="M210.743 213.33c-.5-1.68-1.729-3.056-3.354-3.755-1.625-.7-3.48-.653-5.067.13L187.1 195l-2.1 10.733 14.777 12.318c1.54 2.603 4.807 3.657 7.605 2.453 2.797-1.205 4.241-4.286 3.36-7.174z"/>
                <circle cx="154.5" cy="121.5" r="14.5" fill="#FFB8B8" fill-rule="nonzero"/>
                <path fill="#2F2E41" fill-rule="nonzero" d="M151.137 136.986c.775.345 2.364-5.927 1.652-7.182-1.058-1.865-.995-1.852-1.698-3.086-.702-1.235-.86-2.924.05-4.01.91-1.086 3.015-.942 3.43.42-.267-2.587 2.254-4.666 4.75-5.25 2.497-.584 5.131-.221 7.642-.741 2.913-.604 5.945-3.082 4.782-6.334-.2-.541-.498-1.04-.88-1.468-1.343-1.533-3.222-2.187-5.059-2.82-3.821-1.316-7.748-2.65-11.78-2.504-6.792.36-12.728 4.766-15.125 11.225-.278.79-.493 1.602-.643 2.428-1.385 7.554 2.938 15.005 9.958 17.882l2.92 1.44zM147.827 217.054c-.765-.464-1.183-1.34-1.063-2.228l-6.623-32.912-6.713-25.26c-1.518-5.7 1.1-11.695 6.305-14.441l4.438-4.213 9.683 4.185 4.6 4.692c6.673 3.26 11.663 9.195 13.74 16.343l7.38 25.33 17.041 25.435c.586.873.495 2.035-.22 2.805-2.371 2.559-48.568.264-48.568.264z"/>
                <path fill="#2F2E41" fill-rule="nonzero" d="M192.309 215.604l-25.027-17.47c-3.411-2.397-5.88-5.922-6.98-9.963l-7.034-25.875c-.53-1.915-.267-3.964.726-5.681 1.364-2.395 3.968-3.793 6.702-3.597 2.733.197 5.115 1.952 6.127 4.518l10.433 25.85 22.23 21.251c.508.623.652 1.47.376 2.228l-4.233 7.624c-.302.9-1.139 1.508-2.083 1.511-.443 0-.875-.139-1.237-.396z"/>
                <path fill="#2F2E41" fill-rule="nonzero" d="M140.401 301.054c-.415-.595-.515-1.355-.266-2.037l11.584-42.09.856-41.241 38.998-2.673.189-.013 11.746 21.276c3.677 6.652 5.928 13.997 6.61 21.566l3.87 42.393c.122 1.199-.738 2.274-1.935 2.419l-11.759 1.118c-1.178.143-2.256-.679-2.429-1.852l-4.774-43.08-17.18-29.01-5.767 30.542-11.948 42.178c-.32.862-1.14 1.437-2.06 1.444l-13.934.006c-.72.003-1.395-.351-1.801-.946z"/>
                <path fill="#FFF" fill-rule="nonzero" d="M438.523 440h-293.87c-10.85-.012-19.64-8.817-19.653-19.682V258.682c.012-10.865 8.804-19.67 19.652-19.682h36.031c4.889-.004 9.603 1.82 13.218 5.117l39.073 27.944c2.548 2.332 5.875 3.623 9.325 3.62h198.049c5.262 0 10.304 2.113 13.997 5.867 3.694 3.754 5.73 8.834 5.655 14.103l-1.827 124.954c-.2 10.738-8.927 19.35-19.65 19.395z"/>
                <path fill="#F2F2F2" fill-rule="nonzero" d="M435.822 431H146.475c-5.23-.006-9.47-4.247-9.475-9.481V257.48c.006-5.234 4.244-9.475 9.475-9.481 4.626.005 8.375 3.757 8.38 8.386v153.817c.006 4.905 3.978 8.88 8.88 8.886h271.11c2.772-.031 5.207 1.833 5.902 4.518.778 2.546-.28 5.295-2.564 6.662-.703.458-1.521.711-2.36.731z"/>
                <path fill="#6C63FF" fill-rule="nonzero" d="M294.015 351.646l-.758-.74c-.327-.3-.344-.8-.038-1.12l.038-.037 6.653-6.498c.147-.154.35-.244.566-.25.215-.007.424.07.581.213l.038.037 6.653 6.493c.158.148.248.35.252.564.004.213-.08.419-.231.572l-.02.02-.759.74c-.152.153-.36.242-.578.245-.218.004-.43-.077-.586-.225l-.02-.02-3.935-4.047v9.603c.002.212-.083.415-.235.566-.152.15-.36.236-.576.238h-1.102c-.455 0-.824-.36-.824-.804v-9.592l-3.934 4.048c-.317.317-.839.324-1.164.014l-.02-.02z"/>
                <path fill="#3F3D56" fill-rule="nonzero" d="M300.5 336.803c5.54 0 10.534 3.337 12.654 8.455 2.12 5.119.949 11.01-2.969 14.927-3.917 3.918-9.808 5.09-14.927 2.97-5.118-2.12-8.455-7.115-8.455-12.655.007-7.562 6.135-13.69 13.697-13.697m0-1.803c-8.56 0-15.5 6.94-15.5 15.5 0 8.56 6.94 15.5 15.5 15.5 8.56 0 15.5-6.94 15.5-15.5 0-8.56-6.94-15.5-15.5-15.5z"/>
                <path fill="#3F3D56" fill-rule="nonzero" d="M438.521 440H144.652c-10.848-.012-19.64-8.817-19.652-19.682V258.683c.012-10.866 8.804-19.67 19.652-19.683h36.03c4.89-.004 9.604 1.82 13.219 5.117l39.073 27.944c2.547 2.332 5.874 3.623 9.325 3.62h198.047c5.262 0 10.304 2.113 13.997 5.867 3.694 3.754 5.73 8.834 5.655 14.103l-1.827 124.954c-.2 10.738-8.926 19.35-19.65 19.395zM144.652 240.193c-10.19.011-18.45 8.283-18.461 18.49v161.635c.012 10.206 8.27 18.478 18.461 18.49h293.87c10.073-.042 18.27-8.133 18.458-18.22l1.827-124.954c.07-4.95-1.843-9.723-5.312-13.249-3.47-3.526-8.206-5.511-13.15-5.511H242.3c-3.736.003-7.338-1.39-10.102-3.908l-39.073-27.943c-3.398-3.111-7.837-4.834-12.441-4.83h-36.03z"/>
                <path fill="#FFB8B8" fill-rule="nonzero" d="M463.999 443L456.381 443 454 415 464 415.001z"/>
                <path fill="#2F2E41" fill-rule="nonzero" d="M466 450h-24v-.284c0-2.312.984-4.529 2.736-6.163 1.752-1.635 4.128-2.553 6.605-2.553H466v9z"/>
                <path fill="#FFB8B8" fill-rule="nonzero" d="M545.999 443L538.545 443 535 415 546 415.001z"/>
                <path fill="#2F2E41" fill-rule="nonzero" d="M548 450h-24v-.284c0-2.312.984-4.529 2.736-6.163 1.752-1.635 4.128-2.553 6.605-2.553H548v9z"/>
                <path fill="#FFB8B8" fill-rule="nonzero" d="M521.896 356.342c2.107-2.425 2.18-5.972.176-8.48-.197-.233-.413-.449-.646-.647L527 327l-9.29 3.028-3.87 18.732c-1.313 2.36-1.071 5.262.614 7.382.874 1.134 2.225 1.817 3.672 1.856 1.448.04 2.835-.57 3.77-1.656z"/>
                <path fill="#6C63FF" fill-rule="nonzero" d="M521.346 344c-.115 0-.229-.009-.342-.026l-4.75-.719c-.748-.129-1.401-.583-1.784-1.241-.412-.692-.56-1.51-.417-2.303l5.927-33.233-4.02-21.35c-.775-4.109 1.224-8.259 4.65-9.653 2.068-.85 4.428-.546 6.216.8 1.917 1.457 3.127 3.664 3.33 6.07L533 309.568l-.034.119-9.155 32.26c-.271 1.162-1.279 2-2.465 2.053z"/>
                <circle cx="519.5" cy="248.5" r="14.5" fill="#FFB8B8" fill-rule="nonzero"/>
                <path fill="#6C63FF" fill-rule="nonzero" d="M512.348 317c-.368 0-.733-.067-1.076-.198l-23.343-8.864c-1.302-.49-2.09-1.8-1.901-3.163l.937-6.941c-1.128-4.994.273-10.217 3.758-14.004l.569-.618 6.906-12.433c.945-1.702 2.539-2.96 4.428-3.496 1.889-.536 3.917-.305 5.632.642l12.196 6.728c1.606.884 2.818 2.33 3.398 4.052 1.641 4.875 1.52 10.161-.344 14.958l-8.35 21.434c-.453 1.144-1.567 1.899-2.81 1.903z"/>
                <path fill="#2F2E41" fill-rule="nonzero" d="M451.448 436l-.031-.006c-.798-.153-1.498-.625-1.939-1.306-.44-.68-.585-1.512-.398-2.301l17.728-77.407c2.902-12.271 6.912-24.255 11.979-35.803L486.329 302l28.143 12.834 4.019 7.34c3.133 8.177 4.744 16.856 4.753 25.61l28.596 83.713c.283.827.187 1.737-.261 2.487-.45.75-1.205 1.266-2.069 1.41l-15.654-.177c-.148.026-.297.04-.447.038-1.215 0-2.307-.739-2.754-1.866l-32.69-84.638c-.095-.23-.323-.377-.573-.369-.244.004-.459.16-.538.391l-31.016 85.06c-.492 1.365-1.901 2.174-3.33 1.91l-11.06.257z"/>
                <path fill="#FFB8B8" fill-rule="nonzero" d="M472.987 341.63c1.651-.605 2.957-1.933 3.567-3.627.61-1.694.46-3.58-.408-5.149L490 316.524 479.164 315l-11.494 15.742c-2.517 1.716-3.39 5.1-2.033 7.879 1.356 2.778 4.514 4.07 7.35 3.01z"/>
                <path fill="#6C63FF" fill-rule="nonzero" d="M479.81 330c-.482 0-.956-.12-1.381-.35l-4.871-2.642c-.723-.392-1.252-1.073-1.46-1.878-.21-.805-.079-1.662.36-2.365l17.991-28.826 3.12-21.754c.44-3.062 2.5-5.63 5.362-6.684 2.862-1.053 6.062-.42 8.327 1.648 2.265 2.067 3.228 5.234 2.506 8.24l-6.441 26.813L482.1 328.89c-.558.705-1.401 1.113-2.29 1.11z"/>
                <path fill="#2F2E41" fill-rule="nonzero" d="M506.7 236.599c1.698-5.565 11.513-8.048 19.671-5.739 8.159 2.309 14.02 8.363 15.384 14.282 3.02 13.107-12.737 23.744-9.882 36.853 1.89 8.672 12.818 16.872 25.127 18.853-13.565 2.835-30.122.343-42.7-6.427-7.83-4.214-14.398-10.572-14.299-16.986.06-3.883 2.533-7.317 5.557-10.283 3.024-2.967 6.644-5.604 9.42-8.7 2.775-3.097 4.697-6.805 3.888-10.736-.81-3.931-4.925-8.03-10.461-9.174l-1.705-1.943z"/>
                <path fill="#CCC" fill-rule="nonzero" d="M588.405 451h-226.81c-.328 0-.595-.224-.595-.5s.267-.5.595-.5h226.81c.328 0 .595.224.595.5s-.267.5-.595.5z"/>
            </g>
        </g>
    </g>
</svg>
